HIERARCHY
ROOT root
{
	OFFSET	0	13.1	24.9
	CHANNELS 6  Xposition Yposition Zposition Xrotation Yrotation Zrotation
	JOINT spine_1
	{
		OFFSET	0	9.99999	0
		CHANNELS 3  Xrotation Yrotation Zrotation
		JOINT spine_2
		{
			OFFSET	0	112	-10
			CHANNELS 3  Xrotation Yrotation Zrotation
			JOINT spine_3
			{
				OFFSET	0	206.5	19.3
				CHANNELS 3  Xrotation Yrotation Zrotation
				JOINT spine_4
				{
					OFFSET	0	110.4	14.6
					CHANNELS 3  Xrotation Yrotation Zrotation
					JOINT neck_1
					{
						OFFSET	0	71.8	-50.3
						CHANNELS 3  Xrotation Yrotation Zrotation
						JOINT neck_2
						{
							OFFSET	0	86.2	-25.8
							CHANNELS 3  Xrotation Yrotation Zrotation
							JOINT head_ee
							{
								OFFSET	0	179.8	-8.7
								CHANNELS 3  Xrotation Yrotation Zrotation
								End Site
								{
									OFFSET	1	0	0
								}
							}
						}
					}
					JOINT left_clavicle
					{
						OFFSET	-43.2	22.4	-70.8
						CHANNELS 3  Xrotation Yrotation Zrotation
						JOINT left_shoulder
						{
							OFFSET	-93.9	-5.79999	48.7
							CHANNELS 3  Xrotation Yrotation Zrotation
							JOINT left_elbow
							{
								OFFSET	-291.4	-30.8	15.2
								CHANNELS 3  Xrotation Yrotation Zrotation
								JOINT left_lowarm_twist
								{
									OFFSET	-110.7	-3.89999	13.6
									CHANNELS 3  Xrotation Yrotation Zrotation
									JOINT left_hand
									{
										OFFSET	-110.7	-3.89999	13.6
										CHANNELS 3  Xrotation Yrotation Zrotation
										JOINT left_ee
										{
											OFFSET	-80.8	-5.10001	12.1
											CHANNELS 3  Xrotation Yrotation Zrotation
											End Site
											{
												OFFSET	1	0	0
											}
										}
									}
								}
							}
						}
					}
					JOINT right_clavicle
					{
						OFFSET	43.2	22.4	-70.8
						CHANNELS 3  Xrotation Yrotation Zrotation
						JOINT right_shoulder
						{
							OFFSET	93.9	-5.79999	48.7
							CHANNELS 3  Xrotation Yrotation Zrotation
							JOINT right_elbow
							{
								OFFSET	291.4	-30.8	15.2
								CHANNELS 3  Xrotation Yrotation Zrotation
								JOINT right_lowarm_twist
								{
									OFFSET	110.7	-3.89999	13.6
									CHANNELS 3  Xrotation Yrotation Zrotation
									JOINT right_hand
									{
										OFFSET	110.7	-3.89999	13.6
										CHANNELS 3  Xrotation Yrotation Zrotation
										JOINT right_ee
										{
											OFFSET	80.8	-5.10001	12.1
											CHANNELS 3  Xrotation Yrotation Zrotation
											End Site
											{
												OFFSET	1	0	0
											}
										}
									}
								}
							}
						}
					}
				}
			}
		}
	}
	JOINT left_hip
	{
		OFFSET	-82.8	-127.5	0.300001
		CHANNELS 3  Xrotation Yrotation Zrotation
		JOINT left_knee
		{
			OFFSET	-28.2	-396.7	2.2
			CHANNELS 3  Xrotation Yrotation Zrotation
			JOINT left_ankle
			{
				OFFSET	-11.7	-411.3	35.4
				CHANNELS 3  Xrotation Yrotation Zrotation
				JOINT left_toes
				{
					OFFSET	0	-60	-88.6
					CHANNELS 3  Xrotation Yrotation Zrotation
					JOINT left_foot_ee
					{
						OFFSET	-22.5	-16.5	-42.2
						CHANNELS 3  Xrotation Yrotation Zrotation
						End Site
						{
							OFFSET	1	0	0
						}
					}
				}
			}
		}
	}
	JOINT right_hip
	{
		OFFSET	82.8	-127.5	0.300001
		CHANNELS 3  Xrotation Yrotation Zrotation
		JOINT right_knee
		{
			OFFSET	28.2	-396.7	2.2
			CHANNELS 3  Xrotation Yrotation Zrotation
			JOINT right_ankle
			{
				OFFSET	11.7	-411.3	35.4
				CHANNELS 3  Xrotation Yrotation Zrotation
				JOINT right_toes
				{
					OFFSET	0	-60	-88.6
					CHANNELS 3  Xrotation Yrotation Zrotation
					JOINT right_foot_ee
					{
						OFFSET	22.5	-16.5	-42.2
						CHANNELS 3  Xrotation Yrotation Zrotation
						End Site
						{
							OFFSET	1	0	0
						}
					}
				}
			}
		}
	}
}
MOTION
Frames: 5
Frame Time: 0.02
1916.01 705.051 -1535.24 -5.88237 71.7673 2.06201 1.71767 1.02999 2.22086 1.71998 0.886618 2.28185 1.75589 0.461642 2.40407 1.7488 0.835428 2.30108 -26.0808 11.0194 5.32174 -26.806 19.0841 10.8703 -0.0 0.0 -0.0 0.166462 24.8447 3.08524 -21.148 -9.73897 59.3214 1.7754 -41.3272 0.669626 -45.8169 -3.58993 4.44644 -0.699529 -13.6008 -10.542 -0.0 0.0 -0.0 13.5481 20.2273 -27.5112 -5.54863 26.6673 -65.1874 0.561397 15.5414 -0.07661 71.7234 2.92113 8.07616 1.20434 -14.3913 -13.5264 0.0 0.0 0.0 17.0097 27.0807 -14.4891 -31.1853 -0.00315405 4.7272 37.3406 6.01068 -4.62041 1.73108 -0.0 -0.0 -0.0 0.0 -0.0 -4.14534 0.823775 5.47076 -8.16445 -0.249063 -1.22719 38.4509 22.0733 5.30406 -27.7384 0.0 0.0 0.0 0.0 0.0 
1909.4 706.251 -1541.28 -6.22897 72.5705 2.48753 1.94095 1.06503 2.20249 1.94318 0.922756 2.26576 1.98011 0.509489 2.39275 1.9732 0.880889 2.28236 -26.7178 10.5459 4.64442 -27.4395 18.476 10.1114 -0.0 0.0 -0.0 -0.101643 25.4643 2.79808 -23.0938 -9.42368 59.5219 1.69807 -40.0663 0.619197 -46.506 -3.66812 4.4878 -0.634942 -14.7246 -10.5763 -0.0 0.0 -0.0 13.429 19.5384 -27.2805 -3.71483 27.3699 -66.0992 0.648245 17.803 -0.101531 72.6107 3.01567 8.13962 1.53883 -10.632 -14.382 0.0 0.0 0.0 17.9585 24.4129 -14.6019 -33.901 -0.125011 5.12606 33.4768 8.66405 -4.25364 2.28629 -0.0 -0.0 -0.0 0.0 -0.0 -5.59212 -0.762886 4.87417 -7.78494 -0.241381 -1.16946 38.2354 22.3075 5.29461 -27.5604 0.0 0.0 0.0 0.0 0.0 
1900.51 707.483 -1542.47 -6.67192 74.4544 2.95469 1.99185 0.926021 2.15944 1.9941 0.786768 2.21395 2.02481 0.386432 2.31755 2.0181 0.747506 2.22751 -27.6314 10.0573 5.1133 -28.2833 17.4096 10.4339 -0.0 0.0 -0.0 -0.164372 25.368 2.70521 -26.1974 -8.96097 59.5947 1.63977 -39.0837 0.582058 -46.9017 -3.71323 4.51113 -0.777495 -14.7257 -11.551 -0.0 0.0 -0.0 13.44 18.9664 -27.344 -2.50397 27.7001 -66.4095 0.699585 19.114 -0.117787 72.6803 3.02313 8.14454 1.59218 -8.98618 -14.1434 0.0 0.0 0.0 18.6166 20.9409 -14.5975 -35.4786 -0.204454 5.35502 31.3777 6.75034 -4.03391 3.87771 -0.0 -0.0 -0.0 0.0 -0.0 -5.89618 -1.91514 4.65235 -7.71819 -0.23999 -1.15931 37.9919 22.1468 5.26363 -27.4265 0.0 0.0 0.0 0.0 0.0 
1886.23 706.093 -1543.15 -7.63796 75.7132 4.24039 2.29902 0.789059 2.16511 2.30139 0.649724 2.2109 2.32644 0.263993 2.28918 2.31967 0.622125 2.21882 -26.0919 9.8783 4.73768 -26.6716 17.1227 9.68798 -0.0 0.0 -0.0 -0.16047 24.5466 2.61781 -28.7268 -8.25394 60.5564 1.40586 -34.8522 0.441292 -46.6675 -3.6865 4.49736 -0.980727 -12.3395 -11.9347 -0.0 0.0 -0.0 13.2589 18.5186 -26.9471 -1.68045 27.7803 -66.6497 0.794882 21.4925 -0.150861 73.7233 3.13559 8.21712 1.96792 -7.85985 -16.2618 0.0 0.0 0.0 19.322 16.9464 -14.7212 -34.5704 -0.157946 5.22347 26.4007 6.63996 -3.49135 4.12676 -0.0 -0.0 -0.0 0.0 -0.0 -6.82392 -3.60263 4.41921 -7.16166 -0.227935 -1.07475 38.3304 21.8928 5.28414 -26.1488 0.0 0.0 0.0 0.0 0.0 
1878.75 706.519 -1544.95 -7.15905 75.9817 3.84971 2.3954 0.774792 2.10184 2.39763 0.639508 2.14685 2.42151 0.268507 2.22389 2.41513 0.616278 2.15363 -26.3845 10.1052 4.96355 -26.9979 17.4873 10.08 -0.0 0.0 -0.0 -0.189035 24.1587 2.53546 -30.0196 -6.00649 61.2963 1.2574 -31.9166 0.359579 -46.8162 -3.70347 4.50612 -0.900089 -12.4986 -11.4481 -0.0 0.0 -0.0 13.3287 18.7268 -27.0979 -0.911672 28.2998 -66.2 0.937226 24.9038 -0.206957 73.3258 3.09258 8.1897 1.97688 -5.4409 -15.4334 0.0 0.0 0.0 21.1107 15.3271 -14.8771 -30.459 0.0262103 4.61963 20.7655 1.47431 -2.83854 3.45458 -0.0 -0.0 -0.0 0.0 -0.0 -8.11166 -5.18175 4.01202 -5.09777 -0.176068 -0.762288 38.5227 22.0784 5.31112 -27.7414 0.0 0.0 0.0 0.0 0.0 
